<svg xmlns="http://www.w3.org/2000/svg" viewBox="0 9.050000190734863 208.35000610351562 37.650001525878906" data-asc="0.905"><g fill="#000000"><g fill="#000000" transform="translate(0, 0)"><path d="M19.77 27.50Q19.77 27.50 20.01 26.88Q20.25 26.25 20.57 24.92Q20.90 23.60 20.90 22.47Q20.90 21.35 20.10 18.30Q18.70 13.20 17.70 12.25L17.40 11.90Q16.90 11.60 16.90 11.20Q16.90 10.35 19.15 9.75Q21.40 9.15 22.82 9.15Q24.25 9.15 24.50 10Q25.10 11.85 25.82 15.35Q26.55 18.85 27.07 21.38Q27.60 23.90 27.90 25.25Q28.20 26.60 28.70 28.75Q29.65 32.75 30.60 35.30Q30.90 36 31.32 36Q31.75 36 32.23 35.13Q32.70 34.25 33.53 32.63Q34.35 31 35.73 26.85Q37.10 22.70 37.10 19.65Q37.10 14.95 34.00 13Q33.75 12.70 33.75 12.35Q33.75 12 34.10 11.65Q34.45 11.40 35.10 10.98Q35.75 10.55 37.70 9.88Q39.65 9.20 41.20 9.20Q42.75 9.20 43.05 9.63Q43.35 10.05 43.35 11.15Q43.35 16 40.48 24.02Q37.60 32.05 34.38 38.17Q31.15 44.30 29.55 45.85Q28.70 46.60 28.55 46.60Q28.10 46.60 27.70 45.90Q26 43.05 24 34.75Q23.10 30.85 22.95 30.35Q22.80 29.85 22.70 29.85Q22.45 29.85 22.25 30.35Q20.50 34.40 18.35 38.27Q16.20 42.15 14.90 44L13.65 45.85Q13.15 46.55 12.65 46.55Q12.15 46.55 11.75 45.90Q10.40 43.35 8.45 36.05L7.80 33.55Q7.60 32.85 6.90 29.75Q4.25 17.90 2.85 14.95Q2.05 13.30 1.48 12.80Q0.90 12.30 0.55 12.20Q0 11.95 0 11.57Q0 11.20 0.40 10.85Q1.00 10.40 3.05 9.77Q5.10 9.15 6.50 9.15Q7.90 9.15 8.15 10Q9.15 11.85 10.50 18.30Q13.35 31.80 14.70 35.30Q14.95 36 15.40 36Q15.85 36 16.20 35.25Q16.65 34.80 17.98 31.77Q19.30 28.75 19.77 27.50ZM59.05 30.25L58.95 36.65Q58.95 43.30 60.40 44.65Q60.60 44.85 60.60 45.10Q60.60 45.85 57.38 45.85Q54.15 45.85 53.95 43.95Q53.90 43.50 53.90 42.10L54.10 34.10Q54.10 33.75 53.70 33.75Q51.30 33.75 49.20 35.10Q47.10 36.45 47.10 38.55Q47.10 39.65 47.70 40.40Q48.30 41.15 49.18 41.15Q50.05 41.15 50.63 40.80Q51.20 40.45 51.30 40.40Q52.15 40.50 52.15 42.17Q52.15 43.85 50.60 44.88Q49.05 45.90 47.35 45.90Q45.65 45.90 44.43 45.30Q43.20 44.70 42.65 43.95Q42.10 43.20 41.75 42.25Q41.40 41.10 41.40 40.25Q41.40 36.75 43.60 34.65Q45.80 32.55 49.25 31.65Q53.80 30.75 54.00 30Q54.15 29.45 54.15 28.15Q54.15 25.50 51.45 25.50Q50.30 25.50 49.40 26.22Q48.50 26.95 48.50 28.05L48.80 29.25Q48.70 30.10 47.00 30.25L46.45 30.30Q44.95 30.30 44.08 29.55Q43.20 28.80 43.20 27.55Q43.20 26.75 43.73 25.77Q44.25 24.80 45.05 24.20Q45.85 23.60 47.53 23.13Q49.20 22.65 50.75 22.65Q52.30 22.65 53.15 22.75Q54.00 22.85 55.48 23.22Q56.95 23.60 57.93 24.65Q58.90 25.70 58.98 26.88Q59.05 28.05 59.05 30.25ZM62.10 45.60Q63.00 40.20 63.00 32.65Q63.00 25.10 62.55 22.85Q62.55 22.20 64.05 22.20Q66.35 22.20 67.10 23.95Q67.15 24.10 67.35 24.10Q67.55 24.10 67.65 24Q69.20 22.40 72.45 22.40Q75.70 22.40 77.60 24.05Q79.50 25.70 79.50 28.85Q79.50 30.75 79.18 34.25Q78.85 37.75 78.85 39.45Q78.85 43.50 80.20 45.30Q80.40 45.55 80.40 45.80Q80.40 46.45 79.00 46.45Q72.80 46.45 72.80 40.95Q72.80 38.85 73.75 35.10Q74.70 31.35 74.70 29.40Q74.70 25.40 71.40 25.40Q69.80 25.40 68.98 26.35Q68.15 27.30 68.05 28.52Q67.95 29.75 67.95 33.15Q67.95 38.35 68.30 42.20L68.40 43.30Q68.40 44.70 66.58 45.48Q64.75 46.25 63.43 46.25Q62.10 46.25 62.10 45.60ZM92.05 22.80Q92.95 22.80 93.68 23.02Q94.40 23.25 94.45 23.25L94.75 23L94.55 17.55Q94.45 16.15 93.95 15.15Q93.45 14.15 93.05 13.85L92.60 13.60Q92.30 13.40 92.30 13.15Q92.30 12.40 94.63 11.40Q96.95 10.40 98.25 10.40Q99.55 10.40 99.65 10.95Q99.90 12.65 99.90 17.42Q99.90 22.20 99.68 26.80Q99.45 31.40 99.45 37.23Q99.45 43.05 100.20 44.55Q100.40 44.90 100.40 45.20Q100.40 45.95 98.25 45.95Q94.15 45.95 94.15 44Q94.05 43.20 94.05 41.52Q94.05 39.85 94.38 35.27Q94.70 30.70 94.70 28.22Q94.70 25.75 92.23 25.75Q89.75 25.75 88.45 28.65Q87.15 31.55 87.15 34.45Q87.15 40.60 90.25 40.60Q90.70 40.60 91.13 40.42Q91.55 40.25 91.65 40.25Q92.05 40.25 92.28 40.75Q92.50 41.25 92.50 41.75Q92.50 43.45 91.15 44.63Q89.80 45.80 87.85 45.80Q84.85 45.80 83.33 43.17Q81.80 40.55 81.80 36.65Q81.80 31.70 84.15 27.45Q85.35 25.35 87.40 24.07Q89.45 22.80 92.05 22.80ZM107.40 32.55L107.45 33.80Q107.45 34.10 107.85 34.10Q109.45 33.95 110.65 33.27Q111.85 32.60 112.45 31.75Q113.65 29.90 113.75 28.55L113.80 27.95Q113.80 25.25 111.65 25.25Q110.05 25.25 109.05 26.65Q107.40 28.85 107.40 32.55M118.30 39.20Q118.30 41.10 117.53 42.52Q116.75 43.95 115.78 44.63Q114.80 45.30 113.50 45.70Q111.85 46.20 110.35 46.20Q106.15 46.20 104.15 43.05Q102.15 39.90 102.15 35.02Q102.15 30.15 104.63 26.35Q107.10 22.55 112.05 22.55Q116.55 22.55 118.15 25.70Q118.80 26.90 118.80 27.97Q118.80 29.05 118.70 29.67Q118.60 30.30 118 31.55Q117.40 32.80 116.40 33.80Q115.40 34.80 113.25 35.70Q111.10 36.60 108.20 36.90Q107.80 36.90 107.80 37.25Q107.80 37.70 108.13 38.58Q108.45 39.45 108.85 40.05Q109.95 41.45 112.10 41.45Q114.25 41.45 115.75 40.05Q116.55 39.30 117.05 38.20Q117.25 37.80 117.58 37.80Q117.90 37.80 118.10 38.35Q118.30 38.90 118.30 39.20ZM135.80 31.85L136 33.60Q136 34.55 134.20 34.55Q130.55 34.55 130.55 31.80Q130.55 31.15 130.90 30Q131.25 28.85 131.25 28Q131.25 27.15 130.75 26.52Q130.25 25.90 129.30 25.90Q128.35 25.90 127.68 26.57Q127.00 27.25 126.85 27.95L126.65 28.65Q126.35 30.20 126.35 33.83Q126.35 37.45 126.45 39.52Q126.55 41.60 126.65 42.38Q126.75 43.15 126.75 43.30Q126.75 44.55 125.20 45.33Q123.65 46.10 122.10 46.10Q120.55 46.10 120.55 45.45L120.80 43.90Q121.50 39.55 121.50 32.55Q121.50 25.55 121.00 23.05Q121.00 22.45 122.05 22.45Q124.75 22.45 125.65 24.30Q125.70 24.50 125.83 24.50Q125.95 24.50 126.50 24.05Q128.15 22.70 130.40 22.70Q131.80 22.70 133.20 23.25Q136.05 24.40 136.05 28.05L135.80 31.85ZM152.20 45.20L149.35 45.15Q148.75 45.15 148.15 45.15L139.05 45.60Q138.30 45.60 138.30 45.10Q138.30 44.95 138.45 44.40Q138.95 43.25 139.18 37.10Q139.40 30.95 139.40 25.88Q139.40 20.80 139.20 17.65Q138.90 12.90 138.20 11.95Q137.65 11.25 137.65 11.05Q137.65 10.25 140.35 9.65Q143.05 9.05 144.23 9.05Q145.40 9.05 145.70 9.17Q146 9.30 146 9.70Q146 10.10 145.80 12.25Q145.30 18.60 145.30 27.02Q145.30 35.45 145.70 40.50Q145.70 41.05 146.65 41.45Q147.60 41.85 149 41.85Q153.90 41.85 153.90 34.30Q153.90 32.20 153.68 31.70Q153.45 31.20 153.45 31.05Q153.45 30.55 154.15 30.55Q154.70 30.55 155.63 31.10Q156.55 31.65 157.15 32.48Q157.75 33.30 158.25 35.08Q158.75 36.85 158.75 39.25Q158.75 45.20 157.30 45.20Q154.75 45.20 152.20 45.20ZM178.30 23Q177.40 28.40 177.40 36.75Q177.40 42.90 177.90 44.85L178.10 45.50Q178.10 46.15 177.00 46.15Q173.15 46.15 172.60 44Q172.55 43.75 172.38 43.75Q172.20 43.75 172.05 43.95Q170.50 46 167.25 46Q165.45 46 163.50 45.10Q162.30 44.55 161.55 43.17Q160.80 41.80 160.80 39.80L161.55 28.85Q161.55 25.40 160.85 23.95Q160.60 23.40 160.60 23.25Q160.60 22.95 160.85 22.85Q161.65 22.60 162.90 22.60Q167.75 22.60 167.75 26.60Q167.75 27.85 166.73 32.30Q165.70 36.75 165.70 38.63Q165.70 40.50 166.53 41.50Q167.35 42.50 168.83 42.50Q170.30 42.50 171.15 41.45Q172.00 40.40 172.15 39.35L172.30 38.30Q172.50 36.55 172.50 32.15Q172.50 27.75 172.23 26.57Q171.95 25.40 171.95 25.10Q171.95 23.85 173.95 23.13Q175.95 22.40 177.55 22.40Q178.30 22.40 178.30 23ZM195.90 38.40Q195.90 40.55 195.08 42.15Q194.25 43.75 193.20 44.50Q192.15 45.25 190.70 45.70Q188.80 46.30 187.25 46.30Q184.00 46.30 181.85 45.02Q179.70 43.75 179.70 40.95Q179.70 39.30 180.60 38.25Q182.00 36.70 183.95 36.70Q184.55 36.70 184.55 37.25Q184.55 37.30 184.33 38.02Q184.10 38.75 184.10 39.85Q184.10 40.95 184.98 41.80Q185.85 42.65 187.10 42.65Q188.35 42.65 189.10 42.23Q189.85 41.80 190.15 41.15Q190.60 40.25 190.60 39.45Q190.60 38 189.15 36.95Q187.70 35.90 185.95 35.30Q184.20 34.70 182.75 33.30Q181.30 31.90 181.30 29.80Q181.30 26.20 183.58 24.40Q185.85 22.60 189.75 22.60Q191.45 22.60 193.33 23.07Q195.20 23.55 195.20 24.67Q195.20 25.80 194.83 26.75Q194.45 27.70 193.90 27.70Q193.60 27.70 193.50 27.47Q193.40 27.25 193.15 26.95Q192.90 26.65 191.95 26.18Q191.00 25.70 190.33 25.70Q189.65 25.70 189.43 25.72Q189.20 25.75 188.65 25.88Q188.10 26 187.65 26.25Q186.50 26.90 186.50 28.15Q186.50 28.95 186.85 29.32Q187.20 29.70 187.40 29.90Q187.60 30.10 188.10 30.38Q188.60 30.65 188.80 30.75Q189.00 30.85 189.70 31.17Q190.40 31.50 190.60 31.60Q195.90 34.10 195.90 38.40ZM197.15 25.75L197.30 23.75Q197.35 23.30 198 23.30L199.75 23.30L199.55 19.30L199.55 19.10Q199.55 17.95 201.30 16.90Q203.05 15.85 204.50 15.85Q204.95 15.85 204.95 16.25L204.95 16.30Q204.75 17.65 204.55 23.25Q206.75 23.25 207.35 23.15Q207.95 23.05 208 23.05Q208.35 23.05 208.35 23.65Q208.35 24.25 207.80 25.17Q207.25 26.10 206.60 26.15L204.50 26.15Q204.45 27.85 204.45 31.88Q204.45 35.90 204.53 38.50Q204.60 41.10 204.70 42.42Q204.80 43.75 204.93 44.55Q205.05 45.35 205.13 45.70Q205.20 46.05 205.20 46.15Q205.20 46.65 204.55 46.70Q202.60 46.70 200.68 46.15Q198.75 45.60 198.75 44.25Q199.80 35.85 199.80 26.20Q198.45 26.20 197.75 26.30L197.70 26.30Q197.25 26.30 197.15 25.75Z"/></g></g></svg>